<svg xmlns="http://www.w3.org/2000/svg" width="16" height="16" fill="currentColor" class="qi-102-fill" viewBox="0 0 16 16">
  <defs>
    <!-- 滤镜定义：玻璃投影 -->
    <filter id="glass-shadow" x="-50%" y="-50%" width="200%" height="200%">
      <feDropShadow dx="0" dy="1.5" stdDeviation="1.5" flood-color="rgba(0,0,0,0.15)"/>
    </filter>
    <filter id="sun-glow" x="-50%" y="-50%" width="200%" height="200%">
      <feGaussianBlur in="SourceGraphic" stdDeviation="1" result="blur"/>
      <feMerge>
        <feMergeNode in="blur"/>
        <feMergeNode in="SourceGraphic"/>
      </feMerge>
      <feDropShadow dx="0" dy="0" stdDeviation="2" flood-color="rgba(250,108,33,0.4)"/>
    </filter>
    <!-- 太阳系 -->
    <linearGradient id="sun-gradient-day" x1="0%" y1="0%" x2="100%" y2="100%">
      <stop offset="0%" stop-color="#FFD358"/>
      <stop offset="100%" stop-color="#FA6C21"/>
    </linearGradient>
    <!-- 月亮系 -->
    <linearGradient id="moon-gradient-night" x1="20%" y1="0%" x2="80%" y2="100%">
      <stop offset="0%" stop-color="#FFFFFF"/>
      <stop offset="100%" stop-color="#DCEEFF"/>
    </linearGradient>
    <!-- 云朵系 (玻璃质感渐变) -->
    <linearGradient id="cloud-gradient-day" x1="0%" y1="0%" x2="100%" y2="100%">
      <stop offset="0%" stop-color="white" stop-opacity="0.95"/>
      <stop offset="100%" stop-color="white" stop-opacity="0.5"/>
    </linearGradient>
    <linearGradient id="cloud-gradient-night" x1="0%" y1="0%" x2="100%" y2="100%">
      <stop offset="0%" stop-color="white" stop-opacity="0.7"/>
      <stop offset="100%" stop-color="white" stop-opacity="0.2"/>
    </linearGradient>
    <!-- 雨滴系 -->
    <linearGradient id="raindrop-gradient-normal" x1="20%" y1="0%" x2="80%" y2="100%">
      <stop offset="0%" stop-color="#56CCF2"/>
      <stop offset="100%" stop-color="#2F80ED"/>
    </linearGradient>
    <linearGradient id="raindrop-gradient-heavy" x1="20%" y1="0%" x2="80%" y2="100%">
      <stop offset="0%" stop-color="#2F80ED"/>
      <stop offset="100%" stop-color="#1B4F93"/>
    </linearGradient>
    <!-- 雪花系 -->
    <linearGradient id="snowflake-gradient" x1="0%" y1="0%" x2="100%" y2="100%">
      <stop offset="0%" stop-color="#FFFFFF" stop-opacity="1"/>
      <stop offset="100%" stop-color="#E1F5FE" stop-opacity="0.8"/>
    </linearGradient>
    <!-- 雷电系 -->
    <linearGradient id="thunder-gradient" x1="10.11%" y1="0%" x2="63.87%" y2="100%">
      <stop offset="0%" stop-color="#FFD200"/>
      <stop offset="100%" stop-color="#FF4D00"/>
    </linearGradient>
    <!-- 雾霾/沙尘系 -->
    <linearGradient id="haze-gradient" x1="0%" y1="0%" x2="0%" y2="100%">
      <stop offset="0%" stop-color="#FDF5E6" stop-opacity="0.9"/>
      <stop offset="100%" stop-color="#FddfAF" stop-opacity="0.7"/>
    </linearGradient>
    <!-- 大风系 -->
    <linearGradient id="wind-gradient" x1="0%" y1="0%" x2="100%" y2="100%">
      <stop offset="0%" stop-color="#FFFFFF"/>
      <stop offset="100%" stop-color="#E0F2F1"/>
    </linearGradient>
  
  <style>
    /* 太阳系 */
    .sun-day { 
        fill: url(#sun-gradient-day); 
        filter: url(#sun-glow);
    }
    .sun-ray { fill: #FFA500; opacity: 0.8; }
    
    /* 月亮系 */
    .moon-night { 
        fill: url(#moon-gradient-night); 
        filter: drop-shadow(0 0 8px rgba(255,255,255,0.4)); 
    }
    .moon-star { fill: #ffffff; opacity: 0.9; }
    
    /* 云朵系 - 核心玻璃质感 */
    .cloud-day { 
        fill: url(#cloud-gradient-day); 
        stroke: rgba(255,255,255,0.8);
        stroke-width: 0.2px;
        filter: url(#glass-shadow);
    }
    .cloud-night { 
        fill: url(#cloud-gradient-night); 
        stroke: rgba(255,255,255,0.4);
        stroke-width: 0.2px;
        filter: url(#glass-shadow);
    }

    /* 雨滴系 */
    .raindrop-normal { 
        fill: url(#raindrop-gradient-normal); 
        stroke: rgba(255,255,255,0.3);
        stroke-width: 0.2px;
    }
    .raindrop-heavy { 
        fill: url(#raindrop-gradient-heavy); 
        stroke: rgba(255,255,255,0.2);
        stroke-width: 0.2px;
    }
    
    /* 雪花系 */
    .snowflake { 
        fill: url(#snowflake-gradient); 
        stroke: rgba(255,255,255,0.5);
        stroke-width: 0.2px;
        filter: drop-shadow(0 1px 1px rgba(0,0,0,0.1));
    }
    
    /* 雷电系 */
    .thunder { 
        fill: url(#thunder-gradient); 
        filter: drop-shadow(0 0 5px rgba(255, 215, 0, 0.5)); 
    }

    /* 雾霾系 */
    .fog-light { 
        fill: rgba(255,255,255,0.6); 
        stroke: rgba(255,255,255,0.3);
        stroke-width: 0.1px;
    }
    .haze-light { 
        fill: url(#haze-gradient); 
        stroke: rgba(253, 223, 175, 0.4);
        stroke-width: 0.1px;
    }
    
    /* 大风系 */
    .wind { 
        fill: url(#wind-gradient); 
        stroke: rgba(255,255,255,0.4);
        stroke-width: 0.1px;
        filter: drop-shadow(0 2px 4px rgba(0,0,0,0.12));
    }
  </style>
</defs>

<path class="sun-day" d="M9.975 9.166a3.846 3.846 0 0 0-1.961 1.244v.001a2.923 2.923 0 0 0-2.381 1.397 4.5 4.5 0 1 1 6.868-3.812 4.453 4.453 0 0 1-.207 1.282 3.846 3.846 0 0 0-2.32-.112Z" />
<path class="sun-ray" d="M8.357 2.353999999999999A.5.5 0 0 1 7.503 2V.5a.5.5 0 0 1 1 0V2a.5.5 0 0 1-.146.354Z" />
<path class="sun-ray" d="M3.76 4.245a.5.5 0 0 1-.352-.14L2.347 3.044a.5.5 0 0 1 .708-.706l1.06 1.06a.5.5 0 0 1-.355.847Z" />
<path class="sun-ray" d="M2.354 7.636A.5.5 0 0 1 2 8.49H.5a.5.5 0 0 1 0-1H2a.5.5 0 0 1 .354.146Z" />
<path class="sun-ray" d="M13.64 8.357a.5.5 0 0 1 .353-.854h1.5a.5.5 0 0 1 0 1h-1.5a.5.5 0 0 1-.354-.146Z" />
<path class="sun-ray" d="M12.433 4.222999999999999a.498.498 0 0 1-.47-.046.5.5 0 0 1-.075-.77l1.061-1.06a.5.5 0 0 1 .706.707l-1.06 1.061a.498.498 0 0 1-.162.108Z" />
<path class="cloud-day" d="M13.268 15.162a.224.224 0 0 0-.233.042A2.99 2.99 0 0 1 11 16a2.99 2.99 0 0 1-2.035-.796.224.224 0 0 0-.233-.042 2 2 0 1 1-.383-3.832.224.224 0 0 0 .22-.087A2.996 2.996 0 0 1 11 10c1 0 1.887.49 2.432 1.243.05.069.136.102.22.087a2 2 0 1 1-.383 3.832Z M11 15.25c.752 0 1.418-.37 1.827-.936.086-.12.273-.134.388-.041a1.25 1.25 0 1 0 .209-2.082c-.132.068-.312.017-.373-.118a2.25 2.25 0 0 0-4.102 0c-.06.135-.241.186-.372.118a1.25 1.25 0 1 0 .209 2.082c.114-.093.301-.079.387.04A2.247 2.247 0 0 0 11 15.25Z" />
</svg>