<svg xmlns="http://www.w3.org/2000/svg" width="16" height="16" fill="currentColor" class="qi-2528" viewBox="0 0 16 16">
  <defs>
    <!-- 滤镜定义：玻璃投影 -->
    <filter id="glass-shadow" x="-50%" y="-50%" width="200%" height="200%">
      <feDropShadow dx="0" dy="1.5" stdDeviation="1.5" flood-color="rgba(0,0,0,0.15)"/>
    </filter>
    <filter id="sun-glow" x="-50%" y="-50%" width="200%" height="200%">
      <feGaussianBlur in="SourceGraphic" stdDeviation="1" result="blur"/>
      <feMerge>
        <feMergeNode in="blur"/>
        <feMergeNode in="SourceGraphic"/>
      </feMerge>
      <feDropShadow dx="0" dy="0" stdDeviation="2" flood-color="rgba(250,108,33,0.4)"/>
    </filter>
    <!-- 太阳系 -->
    <linearGradient id="sun-gradient-day" x1="0%" y1="0%" x2="100%" y2="100%">
      <stop offset="0%" stop-color="#FFD358"/>
      <stop offset="100%" stop-color="#FA6C21"/>
    </linearGradient>
    <!-- 月亮系 -->
    <linearGradient id="moon-gradient-night" x1="20%" y1="0%" x2="80%" y2="100%">
      <stop offset="0%" stop-color="#FFFFFF"/>
      <stop offset="100%" stop-color="#DCEEFF"/>
    </linearGradient>
    <!-- 云朵系 (玻璃质感渐变) -->
    <linearGradient id="cloud-gradient-day" x1="0%" y1="0%" x2="100%" y2="100%">
      <stop offset="0%" stop-color="white" stop-opacity="0.95"/>
      <stop offset="100%" stop-color="white" stop-opacity="0.5"/>
    </linearGradient>
    <linearGradient id="cloud-gradient-night" x1="0%" y1="0%" x2="100%" y2="100%">
      <stop offset="0%" stop-color="white" stop-opacity="0.7"/>
      <stop offset="100%" stop-color="white" stop-opacity="0.2"/>
    </linearGradient>
    <!-- 雨滴系 -->
    <linearGradient id="raindrop-gradient-normal" x1="20%" y1="0%" x2="80%" y2="100%">
      <stop offset="0%" stop-color="#56CCF2"/>
      <stop offset="100%" stop-color="#2F80ED"/>
    </linearGradient>
    <linearGradient id="raindrop-gradient-heavy" x1="20%" y1="0%" x2="80%" y2="100%">
      <stop offset="0%" stop-color="#2F80ED"/>
      <stop offset="100%" stop-color="#1B4F93"/>
    </linearGradient>
    <!-- 雪花系 -->
    <linearGradient id="snowflake-gradient" x1="0%" y1="0%" x2="100%" y2="100%">
      <stop offset="0%" stop-color="#FFFFFF" stop-opacity="1"/>
      <stop offset="100%" stop-color="#E1F5FE" stop-opacity="0.8"/>
    </linearGradient>
    <!-- 雷电系 -->
    <linearGradient id="thunder-gradient" x1="10.11%" y1="0%" x2="63.87%" y2="100%">
      <stop offset="0%" stop-color="#FFD200"/>
      <stop offset="100%" stop-color="#FF4D00"/>
    </linearGradient>
    <!-- 雾霾/沙尘系 -->
    <linearGradient id="haze-gradient" x1="0%" y1="0%" x2="0%" y2="100%">
      <stop offset="0%" stop-color="#FDF5E6" stop-opacity="0.9"/>
      <stop offset="100%" stop-color="#FddfAF" stop-opacity="0.7"/>
    </linearGradient>
    <!-- 大风系 -->
    <linearGradient id="wind-gradient" x1="0%" y1="0%" x2="100%" y2="100%">
      <stop offset="0%" stop-color="#FFFFFF"/>
      <stop offset="100%" stop-color="#E0F2F1"/>
    </linearGradient>
  
  <style>
    /* 太阳系 */
    .sun-day { 
        fill: url(#sun-gradient-day); 
        filter: url(#sun-glow);
    }
    .sun-ray { fill: #FFA500; opacity: 0.8; }
    
    /* 月亮系 */
    .moon-night { 
        fill: url(#moon-gradient-night); 
        filter: drop-shadow(0 0 8px rgba(255,255,255,0.4)); 
    }
    .moon-star { fill: #ffffff; opacity: 0.9; }
    
    /* 云朵系 - 核心玻璃质感 */
    .cloud-day { 
        fill: url(#cloud-gradient-day); 
        stroke: rgba(255,255,255,0.8);
        stroke-width: 0.2px;
        filter: url(#glass-shadow);
    }
    .cloud-night { 
        fill: url(#cloud-gradient-night); 
        stroke: rgba(255,255,255,0.4);
        stroke-width: 0.2px;
        filter: url(#glass-shadow);
    }

    /* 雨滴系 */
    .raindrop-normal { 
        fill: url(#raindrop-gradient-normal); 
        stroke: rgba(255,255,255,0.3);
        stroke-width: 0.2px;
    }
    .raindrop-heavy { 
        fill: url(#raindrop-gradient-heavy); 
        stroke: rgba(255,255,255,0.2);
        stroke-width: 0.2px;
    }
    
    /* 雪花系 */
    .snowflake { 
        fill: url(#snowflake-gradient); 
        stroke: rgba(255,255,255,0.5);
        stroke-width: 0.2px;
        filter: drop-shadow(0 1px 1px rgba(0,0,0,0.1));
    }
    
    /* 雷电系 */
    .thunder { 
        fill: url(#thunder-gradient); 
        filter: drop-shadow(0 0 5px rgba(255, 215, 0, 0.5)); 
    }

    /* 雾霾系 */
    .fog-light { 
        fill: rgba(255,255,255,0.6); 
        stroke: rgba(255,255,255,0.3);
        stroke-width: 0.1px;
    }
    .haze-light { 
        fill: url(#haze-gradient); 
        stroke: rgba(253, 223, 175, 0.4);
        stroke-width: 0.1px;
    }
    
    /* 大风系 */
    .wind { 
        fill: url(#wind-gradient); 
        stroke: rgba(255,255,255,0.4);
        stroke-width: 0.1px;
        filter: drop-shadow(0 2px 4px rgba(0,0,0,0.12));
    }
  </style>
</defs>

<path class="wind" d="M.493 10.866c2.044-.355 4.424-.718 6.792-.517 1.318.111 2.242.49 2.747 1.124a2.067 2.067 0 0 1 .408 1.92A1.65 1.65 0 0 1 8.884 14.5l.001.001c-.14 0-.28-.018-.415-.053a1.694 1.694 0 0 1-1.118-.978.489.489 0 0 1 .26-.643.49.49 0 0 1 .64.269.703.703 0 0 0 .466.41.679.679 0 0 0 .805-.434 1.128 1.128 0 0 0-.253-.993c-.326-.41-1.042-.672-2.067-.758-2.253-.191-4.558.16-6.543.505a.486.486 0 1 1-.167-.959Z" />
<path class="wind" d="M15.513 10.346a.487.487 0 0 1 0 .973h-3.237a.488.488 0 1 1 0-.973h3.237Z" />
<path class="wind" d="M7.5329999999999995 7.768000000000001a.487.487 0 0 1 0 .974H3.009a.487.487 0 0 1 0-.974h4.524Z" />
<path class="wind" d="M12.811 3.253000000000001a2.341 2.341 0 0 1 1.214.124l.013.005a2.316 2.316 0 0 1 1.515 1.947 2.666 2.666 0 0 1-1.207 2.532c-1.002.66-2.194.766-3.329.766-.274 0-.546-.005-.81-.01a28.255 28.255 0 0 0-.748-.013.488.488 0 1 1 0-.973c.252 0 .515.006.77.012 1.273.029 2.589.058 3.581-.594a1.695 1.695 0 0 0 .776-1.608 1.342 1.342 0 0 0-.88-1.142 1.39 1.39 0 0 0-1.374.197 1.31 1.31 0 0 0-.409 1.253.485.485 0 0 1-.76.479.488.488 0 0 1-.2-.316 2.293 2.293 0 0 1 .736-2.156c.32-.263.704-.437 1.112-.503Z" />
<path class="wind" d="M5.169 1.5a2.378 2.378 0 0 1 2.378 2.378A2.477 2.477 0 0 1 5.433 6.26c-.203.035-.41.051-.617.05a8.474 8.474 0 0 1-1.956-.309l-.236-.056c-.496-.118-.857-.221-1.2-.318-.309-.087-.627-.178-1.052-.282a.487.487 0 1 1 .232-.948c.442.109.77.203 1.085.292.353.1.685.194 1.161.307l.24.058c.742.178 1.509.364 2.176.246a1.512 1.512 0 0 0 1.308-1.421 1.406 1.406 0 0 0-.867-1.298 1.406 1.406 0 0 0-.538-.106A1.078 1.078 0 0 0 4.09 3.553v.021a.488.488 0 1 1-.973 0v-.021A2.053 2.053 0 0 1 5.168 1.5Z" />
</svg>