<svg xmlns="http://www.w3.org/2000/svg" width="16" height="16" fill="currentColor" class="qi-406-fill" viewBox="0 0 16 16">
  <defs>
    <!-- 滤镜定义：玻璃投影 -->
    <filter id="glass-shadow" x="-50%" y="-50%" width="200%" height="200%">
      <feDropShadow dx="0" dy="1.5" stdDeviation="1.5" flood-color="rgba(0,0,0,0.15)"/>
    </filter>
    <filter id="sun-glow" x="-50%" y="-50%" width="200%" height="200%">
      <feGaussianBlur in="SourceGraphic" stdDeviation="1" result="blur"/>
      <feMerge>
        <feMergeNode in="blur"/>
        <feMergeNode in="SourceGraphic"/>
      </feMerge>
      <feDropShadow dx="0" dy="0" stdDeviation="2" flood-color="rgba(250,108,33,0.4)"/>
    </filter>
    <!-- 太阳系 -->
    <linearGradient id="sun-gradient-day" x1="0%" y1="0%" x2="100%" y2="100%">
      <stop offset="0%" stop-color="#FFD358"/>
      <stop offset="100%" stop-color="#FA6C21"/>
    </linearGradient>
    <!-- 月亮系 -->
    <linearGradient id="moon-gradient-night" x1="20%" y1="0%" x2="80%" y2="100%">
      <stop offset="0%" stop-color="#FFFFFF"/>
      <stop offset="100%" stop-color="#DCEEFF"/>
    </linearGradient>
    <!-- 云朵系 (玻璃质感渐变) -->
    <linearGradient id="cloud-gradient-day" x1="0%" y1="0%" x2="100%" y2="100%">
      <stop offset="0%" stop-color="white" stop-opacity="0.95"/>
      <stop offset="100%" stop-color="white" stop-opacity="0.5"/>
    </linearGradient>
    <linearGradient id="cloud-gradient-night" x1="0%" y1="0%" x2="100%" y2="100%">
      <stop offset="0%" stop-color="white" stop-opacity="0.7"/>
      <stop offset="100%" stop-color="white" stop-opacity="0.2"/>
    </linearGradient>
    <!-- 雨滴系 -->
    <linearGradient id="raindrop-gradient-normal" x1="20%" y1="0%" x2="80%" y2="100%">
      <stop offset="0%" stop-color="#56CCF2"/>
      <stop offset="100%" stop-color="#2F80ED"/>
    </linearGradient>
    <linearGradient id="raindrop-gradient-heavy" x1="20%" y1="0%" x2="80%" y2="100%">
      <stop offset="0%" stop-color="#2F80ED"/>
      <stop offset="100%" stop-color="#1B4F93"/>
    </linearGradient>
    <!-- 雪花系 -->
    <linearGradient id="snowflake-gradient" x1="0%" y1="0%" x2="100%" y2="100%">
      <stop offset="0%" stop-color="#FFFFFF" stop-opacity="1"/>
      <stop offset="100%" stop-color="#E1F5FE" stop-opacity="0.8"/>
    </linearGradient>
    <!-- 雷电系 -->
    <linearGradient id="thunder-gradient" x1="10.11%" y1="0%" x2="63.87%" y2="100%">
      <stop offset="0%" stop-color="#FFD200"/>
      <stop offset="100%" stop-color="#FF4D00"/>
    </linearGradient>
    <!-- 雾霾/沙尘系 -->
    <linearGradient id="haze-gradient" x1="0%" y1="0%" x2="0%" y2="100%">
      <stop offset="0%" stop-color="#FDF5E6" stop-opacity="0.9"/>
      <stop offset="100%" stop-color="#FddfAF" stop-opacity="0.7"/>
    </linearGradient>
  
  <style>
    /* 太阳系 */
    .sun-day { 
        fill: url(#sun-gradient-day); 
        filter: url(#sun-glow);
    }
    .sun-ray { fill: #FFA500; opacity: 0.8; }
    
    /* 月亮系 */
    .moon-night { 
        fill: url(#moon-gradient-night); 
        filter: drop-shadow(0 0 8px rgba(255,255,255,0.4)); 
    }
    .moon-star { fill: #ffffff; opacity: 0.9; }
    
    /* 云朵系 - 核心玻璃质感 */
    .cloud-day { 
        fill: url(#cloud-gradient-day); 
        stroke: rgba(255,255,255,0.8);
        stroke-width: 0.2px;
        filter: url(#glass-shadow);
    }
    .cloud-night { 
        fill: url(#cloud-gradient-night); 
        stroke: rgba(255,255,255,0.4);
        stroke-width: 0.2px;
        filter: url(#glass-shadow);
    }

    /* 雨滴系 */
    .raindrop-normal { 
        fill: url(#raindrop-gradient-normal); 
        stroke: rgba(255,255,255,0.3);
        stroke-width: 0.2px;
    }
    .raindrop-heavy { 
        fill: url(#raindrop-gradient-heavy); 
        stroke: rgba(255,255,255,0.2);
        stroke-width: 0.2px;
    }
    
    /* 雪花系 */
    .snowflake { 
        fill: url(#snowflake-gradient); 
        stroke: rgba(255,255,255,0.5);
        stroke-width: 0.2px;
        filter: drop-shadow(0 1px 1px rgba(0,0,0,0.1));
    }
    
    /* 雷电系 */
    .thunder { 
        fill: url(#thunder-gradient); 
        filter: drop-shadow(0 0 5px rgba(255, 215, 0, 0.5)); 
    }

    /* 雾霾系 */
    .fog-light { 
        fill: rgba(255,255,255,0.6); 
        stroke: rgba(255,255,255,0.3);
        stroke-width: 0.1px;
    }
    .haze-light { 
        fill: url(#haze-gradient); 
        stroke: rgba(253, 223, 175, 0.4);
        stroke-width: 0.1px;
    }
  </style>
</defs>

<path class="sun-day" d="M2.47 5.315a3.53 3.53 0 0 1 1.018-.288 1.83 1.83 0 0 1 1.811-1.603c.188.003.375.035.553.095.407-.193.838-.33 1.282-.405a2.82 2.82 0 0 0-4.67 2.145c0 .02.006.037.006.056Z" />
<path class="sun-ray" d="M5.195 1.904h.007a.5.5 0 0 0 .493-.506L5.683.494a.5.5 0 0 0-.5-.494h-.007a.5.5 0 0 0-.493.506l.012.905a.5.5 0 0 0 .5.493Z" />
<path class="sun-ray" d="M2.3030000000000004 2.8499999999999996a.5.5 0 1 0 .698-.716l-.648-.63a.5.5 0 1 0-.697.715l.647.631Z" />
<path class="sun-ray" d="M2.1240000000000006 5.052999999999999a.5.5 0 0 0-.5-.493h-.007l-.904.011a.5.5 0 0 0 .006 1h.007l.905-.011a.5.5 0 0 0 .493-.507Z" />
<path class="sun-ray" d="M7.7620000000000005 2.932999999999999a.5.5 0 0 0 .359-.151l.63-.648a.5.5 0 0 0-.716-.698l-.631.647a.5.5 0 0 0 .358.85Z" />
<path class="cloud-day" d="M11.994 10.896A4.758 4.758 0 0 1 8.406 12.5a4.76 4.76 0 0 1-3.537-1.547 2.908 2.908 0 0 1-1.056.197C2.258 11.15 1 9.941 1 8.45s1.26-2.7 2.813-2.7c.173 0 .342.015.507.044C5.124 4.424 6.652 3.5 8.406 3.5c1.769 0 3.308.94 4.107 2.328a2.93 2.93 0 0 1 .675-.078C14.74 5.75 16 6.959 16 8.45s-1.26 2.7-2.813 2.7a2.9 2.9 0 0 1-1.193-.254Z" />
<path class="raindrop-normal" d="M4.575 15a1 1 0 1 0 2 0c0-.5-.555-1.395-1-2-.445.605-1 1.5-1 2Z" />
<path class="snowflake" d="M11.076 13a.35.35 0 0 0-.35.35v.544l-.47-.272a.35.35 0 1 0-.35.606l.47.272-.47.272a.35.35 0 1 0 .35.606l.47-.272v.544a.35.35 0 1 0 .7 0v-.544l.47.272a.35.35 0 1 0 .35-.606l-.47-.272.47-.272a.35.35 0 1 0-.35-.606l-.47.272v-.544a.35.35 0 0 0-.35-.35Z" />
</svg>