<svg xmlns="http://www.w3.org/2000/svg" width="16" height="16" fill="currentColor" class="qi-507-fill" viewBox="0 0 16 16">
  <defs>
    <!-- 滤镜定义：玻璃投影 -->
    <filter id="glass-shadow" x="-50%" y="-50%" width="200%" height="200%">
      <feDropShadow dx="0" dy="1.5" stdDeviation="1.5" flood-color="rgba(0,0,0,0.15)"/>
    </filter>
    <filter id="sun-glow" x="-50%" y="-50%" width="200%" height="200%">
      <feGaussianBlur in="SourceGraphic" stdDeviation="1" result="blur"/>
      <feMerge>
        <feMergeNode in="blur"/>
        <feMergeNode in="SourceGraphic"/>
      </feMerge>
      <feDropShadow dx="0" dy="0" stdDeviation="2" flood-color="rgba(250,108,33,0.4)"/>
    </filter>
    <!-- 太阳系 -->
    <linearGradient id="sun-gradient-day" x1="0%" y1="0%" x2="100%" y2="100%">
      <stop offset="0%" stop-color="#FFD358"/>
      <stop offset="100%" stop-color="#FA6C21"/>
    </linearGradient>
    <!-- 月亮系 -->
    <linearGradient id="moon-gradient-night" x1="20%" y1="0%" x2="80%" y2="100%">
      <stop offset="0%" stop-color="#FFFFFF"/>
      <stop offset="100%" stop-color="#DCEEFF"/>
    </linearGradient>
    <!-- 云朵系 (玻璃质感渐变) -->
    <linearGradient id="cloud-gradient-day" x1="0%" y1="0%" x2="100%" y2="100%">
      <stop offset="0%" stop-color="white" stop-opacity="0.95"/>
      <stop offset="100%" stop-color="white" stop-opacity="0.5"/>
    </linearGradient>
    <linearGradient id="cloud-gradient-night" x1="0%" y1="0%" x2="100%" y2="100%">
      <stop offset="0%" stop-color="white" stop-opacity="0.7"/>
      <stop offset="100%" stop-color="white" stop-opacity="0.2"/>
    </linearGradient>
    <!-- 雨滴系 -->
    <linearGradient id="raindrop-gradient-normal" x1="20%" y1="0%" x2="80%" y2="100%">
      <stop offset="0%" stop-color="#56CCF2"/>
      <stop offset="100%" stop-color="#2F80ED"/>
    </linearGradient>
    <linearGradient id="raindrop-gradient-heavy" x1="20%" y1="0%" x2="80%" y2="100%">
      <stop offset="0%" stop-color="#2F80ED"/>
      <stop offset="100%" stop-color="#1B4F93"/>
    </linearGradient>
    <!-- 雪花系 -->
    <linearGradient id="snowflake-gradient" x1="0%" y1="0%" x2="100%" y2="100%">
      <stop offset="0%" stop-color="#FFFFFF" stop-opacity="1"/>
      <stop offset="100%" stop-color="#E1F5FE" stop-opacity="0.8"/>
    </linearGradient>
    <!-- 雷电系 -->
    <linearGradient id="thunder-gradient" x1="10.11%" y1="0%" x2="63.87%" y2="100%">
      <stop offset="0%" stop-color="#FFD200"/>
      <stop offset="100%" stop-color="#FF4D00"/>
    </linearGradient>
    <!-- 雾霾/沙尘系 -->
    <linearGradient id="haze-gradient" x1="0%" y1="0%" x2="0%" y2="100%">
      <stop offset="0%" stop-color="#FDF5E6" stop-opacity="0.9"/>
      <stop offset="100%" stop-color="#FddfAF" stop-opacity="0.7"/>
    </linearGradient>
    <!-- 大风系 -->
    <linearGradient id="wind-gradient" x1="0%" y1="0%" x2="100%" y2="100%">
      <stop offset="0%" stop-color="#FFFFFF"/>
      <stop offset="100%" stop-color="#E0F2F1"/>
    </linearGradient>
  
  <style>
    /* 太阳系 */
    .sun-day { 
        fill: url(#sun-gradient-day); 
        filter: url(#sun-glow);
    }
    .sun-ray { fill: #FFA500; opacity: 0.8; }
    
    /* 月亮系 */
    .moon-night { 
        fill: url(#moon-gradient-night); 
        filter: drop-shadow(0 0 8px rgba(255,255,255,0.4)); 
    }
    .moon-star { fill: #ffffff; opacity: 0.9; }
    
    /* 云朵系 - 核心玻璃质感 */
    .cloud-day { 
        fill: url(#cloud-gradient-day); 
        stroke: rgba(255,255,255,0.8);
        stroke-width: 0.2px;
        filter: url(#glass-shadow);
    }
    .cloud-night { 
        fill: url(#cloud-gradient-night); 
        stroke: rgba(255,255,255,0.4);
        stroke-width: 0.2px;
        filter: url(#glass-shadow);
    }

    /* 雨滴系 */
    .raindrop-normal { 
        fill: url(#raindrop-gradient-normal); 
        stroke: rgba(255,255,255,0.3);
        stroke-width: 0.2px;
    }
    .raindrop-heavy { 
        fill: url(#raindrop-gradient-heavy); 
        stroke: rgba(255,255,255,0.2);
        stroke-width: 0.2px;
    }
    
    /* 雪花系 */
    .snowflake { 
        fill: url(#snowflake-gradient); 
        stroke: rgba(255,255,255,0.5);
        stroke-width: 0.2px;
        filter: drop-shadow(0 1px 1px rgba(0,0,0,0.1));
    }
    
    /* 雷电系 */
    .thunder { 
        fill: url(#thunder-gradient); 
        filter: drop-shadow(0 0 5px rgba(255, 215, 0, 0.5)); 
    }

    /* 雾霾系 */
    .fog-light { 
        fill: rgba(255,255,255,0.6); 
        stroke: rgba(255,255,255,0.3);
        stroke-width: 0.1px;
    }
    .haze-light { 
        fill: url(#haze-gradient); 
        stroke: rgba(253, 223, 175, 0.4);
        stroke-width: 0.1px;
    }
    
    /* 大风系 */
    .wind { 
        fill: url(#wind-gradient); 
        stroke: rgba(255,255,255,0.4);
        stroke-width: 0.1px;
        filter: drop-shadow(0 2px 4px rgba(0,0,0,0.12));
    }
  </style>
</defs>

<path class="haze-light" d="M15.859 8.141 14.34 9.66a.2.2 0 0 1-.34-.143V9H1a1 1 0 1 1 0-2h13v-.517a.2.2 0 0 1 .341-.142L15.86 7.86a.2.2 0 0 1 0 .282Z M10.462 2.99c.388.39 1.052.476 1.516.156.44-.303.536-.862.177-1.238a7.232 7.232 0 0 0-1.52-1.241C9.91.222 9.06 0 8.082 0 6.82 0 5.788.354 4.984 1.063c-.788.694-1.182 1.548-1.182 2.562 0 .472.102.944.307 1.417.205.472.528.916.97 1.333.191.174.447.383.768.625h3.366a24.36 24.36 0 0 0-.162-.104c-1.356-.89-2.223-1.528-2.6-1.917-.38-.389-.568-.84-.568-1.354 0-.528.197-.958.59-1.292.41-.333.907-.5 1.49-.5.6 0 1.12.132 1.561.396.276.156.588.41.938.761Z M11.725 9c.12.126.229.251.33.375.63.778.945 1.597.945 2.458 0 1.125-.497 2.104-1.49 2.938C10.533 15.59 9.39 16 8.082 16c-2.038 0-3.686-.887-4.946-2.662-.284-.4-.105-.918.36-1.154a1.175 1.175 0 0 1 1.43.328c.886 1.159 1.859 1.738 2.92 1.738.819 0 1.52-.23 2.104-.688.583-.458.875-.993.875-1.604 0-.61-.245-1.187-.733-1.729-.317-.36-.783-.77-1.398-1.229h3.031Z" />
</svg>