<svg xmlns="http://www.w3.org/2000/svg" width="16" height="16" fill="currentColor" class="qi-512-fill" viewBox="0 0 16 16">
  <defs>
    <!-- 滤镜定义：玻璃投影 -->
    <filter id="glass-shadow" x="-50%" y="-50%" width="200%" height="200%">
      <feDropShadow dx="0" dy="1.5" stdDeviation="1.5" flood-color="rgba(0,0,0,0.15)"/>
    </filter>
    <filter id="sun-glow" x="-50%" y="-50%" width="200%" height="200%">
      <feGaussianBlur in="SourceGraphic" stdDeviation="1" result="blur"/>
      <feMerge>
        <feMergeNode in="blur"/>
        <feMergeNode in="SourceGraphic"/>
      </feMerge>
      <feDropShadow dx="0" dy="0" stdDeviation="2" flood-color="rgba(250,108,33,0.4)"/>
    </filter>
    <!-- 太阳系 -->
    <linearGradient id="sun-gradient-day" x1="0%" y1="0%" x2="100%" y2="100%">
      <stop offset="0%" stop-color="#FFD358"/>
      <stop offset="100%" stop-color="#FA6C21"/>
    </linearGradient>
    <!-- 月亮系 -->
    <linearGradient id="moon-gradient-night" x1="20%" y1="0%" x2="80%" y2="100%">
      <stop offset="0%" stop-color="#FFFFFF"/>
      <stop offset="100%" stop-color="#DCEEFF"/>
    </linearGradient>
    <!-- 云朵系 (玻璃质感渐变) -->
    <linearGradient id="cloud-gradient-day" x1="0%" y1="0%" x2="100%" y2="100%">
      <stop offset="0%" stop-color="white" stop-opacity="0.95"/>
      <stop offset="100%" stop-color="white" stop-opacity="0.5"/>
    </linearGradient>
    <linearGradient id="cloud-gradient-night" x1="0%" y1="0%" x2="100%" y2="100%">
      <stop offset="0%" stop-color="white" stop-opacity="0.7"/>
      <stop offset="100%" stop-color="white" stop-opacity="0.2"/>
    </linearGradient>
    <!-- 雨滴系 -->
    <linearGradient id="raindrop-gradient-normal" x1="20%" y1="0%" x2="80%" y2="100%">
      <stop offset="0%" stop-color="#56CCF2"/>
      <stop offset="100%" stop-color="#2F80ED"/>
    </linearGradient>
    <linearGradient id="raindrop-gradient-heavy" x1="20%" y1="0%" x2="80%" y2="100%">
      <stop offset="0%" stop-color="#2F80ED"/>
      <stop offset="100%" stop-color="#1B4F93"/>
    </linearGradient>
    <!-- 雪花系 -->
    <linearGradient id="snowflake-gradient" x1="0%" y1="0%" x2="100%" y2="100%">
      <stop offset="0%" stop-color="#FFFFFF" stop-opacity="1"/>
      <stop offset="100%" stop-color="#E1F5FE" stop-opacity="0.8"/>
    </linearGradient>
    <!-- 雷电系 -->
    <linearGradient id="thunder-gradient" x1="10.11%" y1="0%" x2="63.87%" y2="100%">
      <stop offset="0%" stop-color="#FFD200"/>
      <stop offset="100%" stop-color="#FF4D00"/>
    </linearGradient>
    <!-- 雾霾/沙尘系 -->
    <linearGradient id="haze-gradient" x1="0%" y1="0%" x2="0%" y2="100%">
      <stop offset="0%" stop-color="#FDF5E6" stop-opacity="0.9"/>
      <stop offset="100%" stop-color="#FddfAF" stop-opacity="0.7"/>
    </linearGradient>
    <!-- 大风系 -->
    <linearGradient id="wind-gradient" x1="0%" y1="0%" x2="100%" y2="100%">
      <stop offset="0%" stop-color="#FFFFFF"/>
      <stop offset="100%" stop-color="#E0F2F1"/>
    </linearGradient>
  
  <style>
    /* 太阳系 */
    .sun-day { 
        fill: url(#sun-gradient-day); 
        filter: url(#sun-glow);
    }
    .sun-ray { fill: #FFA500; opacity: 0.8; }
    
    /* 月亮系 */
    .moon-night { 
        fill: url(#moon-gradient-night); 
        filter: drop-shadow(0 0 8px rgba(255,255,255,0.4)); 
    }
    .moon-star { fill: #ffffff; opacity: 0.9; }
    
    /* 云朵系 - 核心玻璃质感 */
    .cloud-day { 
        fill: url(#cloud-gradient-day); 
        stroke: rgba(255,255,255,0.8);
        stroke-width: 0.2px;
        filter: url(#glass-shadow);
    }
    .cloud-night { 
        fill: url(#cloud-gradient-night); 
        stroke: rgba(255,255,255,0.4);
        stroke-width: 0.2px;
        filter: url(#glass-shadow);
    }

    /* 雨滴系 */
    .raindrop-normal { 
        fill: url(#raindrop-gradient-normal); 
        stroke: rgba(255,255,255,0.3);
        stroke-width: 0.2px;
    }
    .raindrop-heavy { 
        fill: url(#raindrop-gradient-heavy); 
        stroke: rgba(255,255,255,0.2);
        stroke-width: 0.2px;
    }
    
    /* 雪花系 */
    .snowflake { 
        fill: url(#snowflake-gradient); 
        stroke: rgba(255,255,255,0.5);
        stroke-width: 0.2px;
        filter: drop-shadow(0 1px 1px rgba(0,0,0,0.1));
    }
    
    /* 雷电系 */
    .thunder { 
        fill: url(#thunder-gradient); 
        filter: drop-shadow(0 0 5px rgba(255, 215, 0, 0.5)); 
    }

    /* 雾霾系 */
    .fog-light { 
        fill: rgba(255,255,255,0.6); 
        stroke: rgba(255,255,255,0.3);
        stroke-width: 0.1px;
    }
    .haze-light { 
        fill: url(#haze-gradient); 
        stroke: rgba(253, 223, 175, 0.4);
        stroke-width: 0.1px;
    }
    
    /* 大风系 */
    .wind { 
        fill: url(#wind-gradient); 
        stroke: rgba(255,255,255,0.4);
        stroke-width: 0.1px;
        filter: drop-shadow(0 2px 4px rgba(0,0,0,0.12));
    }
  </style>
</defs>

<path class="haze-light" d="M3.989 2.481a1 1 0 1 1-2 0 1 1 0 0 1 2 0Z M9.030999999999999 2.9579999999999997a1 1 0 1 1-2 0 1 1 0 0 1 2 0Z M8.030999999999999 13.98a1 1 0 1 0 0-2 1 1 0 0 0 0 2Z M14 2.481a1 1 0 1 1-2 0 1 1 0 0 1 2 0Z M2.989 14.457a1 1 0 1 0 0-2 1 1 0 0 0 0 2Z M14 13.457a1 1 0 1 1-2 0 1 1 0 0 1 2 0Z M12.543 4.487c-1.581 0-3.876 1.712-4.57 2.888C7.282 6.2 4.987 4.487 3.406 4.487a3.486 3.486 0 0 0 0 6.97c1.58 0 3.876-1.75 4.569-2.906.693 1.156 2.988 2.906 4.569 2.906a3.486 3.486 0 0 0 0-6.97h-.001Z" />
</svg>